<?xml version="1.0" encoding="UTF-8" standalone="no" ?>
<!DOCTYPE svg PUBLIC "-//W3C//DTD SVG 1.1//EN" "http://www.w3.org/Graphics/SVG/1.1/DTD/svg11.dtd">
<svg xmlns="http://www.w3.org/2000/svg" xmlns:xlink="http://www.w3.org/1999/xlink" version="1.1" width="500" height="500" viewBox="0 0 500 500" xml:space="preserve">
<desc>Created with Fabric.js 5.3.0</desc>
<defs>
</defs>
<g transform="matrix(2.1666666667 0 0 2.1666666568 250 250)" id="Q138_wbUcGtShIrbeMwH2"  >
<g style=""   >
		<g transform="matrix(0.1333333333 0 0 -0.1333333333 -10.4217000764 0.4848484848)" id="HGLdMccfYpKmwOxsyFtfN"  >
<path style="stroke: none; stroke-width: 1; stroke-dasharray: none; stroke-linecap: butt; stroke-dashoffset: 0; stroke-linejoin: miter; stroke-miterlimit: 4; fill: rgb(0,0,0); fill-rule: nonzero; opacity: 1;"  transform=" translate(-2171.8372494268, -1686.3636363636)" d="M 2082 2414 C 2065 2407 2047 2393 2041 2381 C 2034 2369 2030 2272 2030 2115 C 2030 1905 2032 1869 2044 1873 C 2070 1883 2128 1860 2154 1829 C 2174 1806 2180 1787 2180 1751 C 2180 1689 2155 1657 2088 1632 L 2036 1613 L 2070 1595 C 2128 1566 2176 1523 2209 1472 C 2242 1421 2273 1315 2268 1274 C 2263 1233 2245 1252 2242 1303 C 2235 1420 2161 1528 2054 1577 C 2010 1597 1990 1601 1954 1595 C 1878 1584 1906 1606 1998 1630 C 2111 1660 2129 1668 2146 1701 C 2169 1746 2164 1788 2131 1821 C 2092 1859 2057 1859 1905 1816 C 1782 1781 1757 1764 1744 1715 C 1737 1686 1845 1282 1866 1259 C 1875 1249 1896 1240 1914 1238 L 1945 1235 L 1948 1092 L 1951 950 L 2218 952 L 2485 955 L 2488 1098 C 2490 1233 2492 1240 2511 1240 C 2542 1240 2568 1258 2585 1290 C 2598 1315 2600 1389 2600 1784 L 2600 2248 L 2574 2279 C 2541 2318 2494 2321 2453 2286 L 2425 2262 L 2422 2021 C 2420 1878 2415 1780 2409 1780 C 2404 1780 2400 1885 2400 2046 L 2400 2312 L 2371 2341 C 2355 2357 2332 2370 2320 2370 C 2291 2370 2244 2344 2236 2325 C 2233 2316 2230 2189 2230 2043 C 2230 1836 2227 1779 2218 1782 C 2208 1786 2204 1856 2202 2080 C 2200 2361 2199 2375 2179 2396 C 2153 2424 2120 2430 2082 2414 z" stroke-linecap="round" />
</g>
		<g transform="matrix(0.1333333333 0 0 -0.1333333333 -44.3333333333 -53.9433561261)" id="XH7gen-PRwgRXWd_Qr_As"  >
<path style="stroke: none; stroke-width: 1; stroke-dasharray: none; stroke-linecap: butt; stroke-dashoffset: 0; stroke-linejoin: miter; stroke-miterlimit: 4; fill: rgb(0,0,0); fill-rule: nonzero; opacity: 1;"  transform=" translate(-1917.5, -2094.5751709457)" d="M 1880 2357 C 1834 2334 1830 2312 1830 2057 L 1830 1820 L 1858 1826 C 1873 1830 1912 1840 1945 1849 L 2005 1865 L 2005 2094 L 2005 2322 L 1977 2346 C 1946 2373 1917 2376 1880 2357 z" stroke-linecap="round" />
</g>
</g>
</g>
</svg>