<?xml version="1.0" encoding="UTF-8" standalone="no" ?>
<!DOCTYPE svg PUBLIC "-//W3C//DTD SVG 1.1//EN" "http://www.w3.org/Graphics/SVG/1.1/DTD/svg11.dtd">
<svg xmlns="http://www.w3.org/2000/svg" xmlns:xlink="http://www.w3.org/1999/xlink" version="1.1" width="500" height="500" viewBox="0 0 500 500" xml:space="preserve">
<desc>Created with Fabric.js 5.3.0</desc>
<defs>
</defs>
<g transform="matrix(2.1666666667 0 0 2.1666666568 250 205.8912374533)" id="ARav0rcCzLQ8qaOXeM0Pi"  >
<g style=""   >
		<g transform="matrix(0.1333333333 0 0 -0.1333333333 -7.2393640024 -16.8331866075)" id="C340GPsoPCxg8ZEeRpyhL"  >
<path style="stroke: none; stroke-width: 1; stroke-dasharray: none; stroke-linecap: butt; stroke-dashoffset: 0; stroke-linejoin: miter; stroke-miterlimit: 4; fill: rgb(0,0,0); fill-rule: nonzero; opacity: 1;"  transform=" translate(-2195.7047699818, -1816.2488995564)" d="M 2154 2018 C 2125 2004 2110 1969 2110 1913 C 2110 1878 2113 1869 2124 1873 C 2132 1876 2154 1874 2174 1869 C 2283 1839 2291 1677 2185 1639 C 2142 1623 2141 1614 2179 1605 C 2218 1597 2265 1622 2276 1657 C 2281 1672 2283 1754 2280 1838 C 2275 1985 2274 1993 2251 2011 C 2226 2032 2187 2035 2154 2018 z" stroke-linecap="round" />
</g>
		<g transform="matrix(0.1333333333 0 0 -0.1333333333 -33.3584599093 -29.3584408118)" id="udmRpBGMW-sj5tYCzjxWx"  >
<path style="stroke: none; stroke-width: 1; stroke-dasharray: none; stroke-linecap: butt; stroke-dashoffset: 0; stroke-linejoin: miter; stroke-miterlimit: 4; fill: rgb(0,0,0); fill-rule: nonzero; opacity: 1;"  transform=" translate(-1999.8115506802, -1910.1883060884)" d="M 1944 1976 C 1920 1956 1916 1944 1912 1886 C 1910 1850 1912 1820 1916 1820 C 1921 1820 1961 1831 2005 1843 C 2085 1866 2085 1866 2088 1901 C 2090 1928 2085 1945 2065 1969 C 2031 2008 1984 2011 1944 1976 z" stroke-linecap="round" />
</g>
		<g transform="matrix(0.1333333333 0 0 -0.1333333333 19.3333333333 -9.3333333333)" id="GObR7Oxtt_Ub8FYROrezZ"  >
<path style="stroke: none; stroke-width: 1; stroke-dasharray: none; stroke-linecap: butt; stroke-dashoffset: 0; stroke-linejoin: miter; stroke-miterlimit: 4; fill: rgb(0,0,0); fill-rule: nonzero; opacity: 1;"  transform=" translate(-2395, -1760)" d="M 2335 1945 C 2311 1921 2310 1918 2310 1760 C 2310 1602 2311 1599 2335 1575 C 2351 1558 2370 1550 2395 1550 C 2420 1550 2439 1558 2455 1575 C 2479 1599 2480 1602 2480 1760 C 2480 1918 2479 1921 2455 1945 C 2439 1962 2420 1970 2395 1970 C 2370 1970 2351 1962 2335 1945 z" stroke-linecap="round" />
</g>
		<g transform="matrix(0.1333333333 0 0 -0.1333333333 45.4068027211 -5.9713444406)" id="ON0gWasIQPEHYk3rjKXgx"  >
<path style="stroke: none; stroke-width: 1; stroke-dasharray: none; stroke-linecap: butt; stroke-dashoffset: 0; stroke-linejoin: miter; stroke-miterlimit: 4; fill: rgb(0,0,0); fill-rule: nonzero; opacity: 1;"  transform=" translate(-2590.5510204082, -1734.7850833044)" d="M 2554 1936 C 2506 1915 2498 1882 2502 1715 C 2505 1568 2505 1568 2533 1544 C 2572 1511 2614 1513 2651 1549 L 2680 1578 L 2680 1725 C 2680 1885 2672 1917 2625 1938 C 2593 1953 2593 1953 2554 1936 z" stroke-linecap="round" />
</g>
		<g transform="matrix(0.1333333333 0 0 -0.1333333333 0.2487711541 38.7638532871)" id="IDVoGErjMc7c3UDxnpHZk"  >
<path style="stroke: none; stroke-width: 1; stroke-dasharray: none; stroke-linecap: butt; stroke-dashoffset: 0; stroke-linejoin: miter; stroke-miterlimit: 4; fill: rgb(0,0,0); fill-rule: nonzero; opacity: 1;"  transform=" translate(-2251.8657836561, -1399.2711003464)" d="M 1986 1816 C 1863 1781 1837 1765 1824 1715 C 1819 1695 1885 1424 1926 1297 C 1942 1250 1946 1247 2005 1238 C 2024 1235 2025 1226 2028 1092 L 2031 950 L 2298 952 L 2565 955 L 2568 1098 C 2570 1233 2572 1240 2591 1240 C 2657 1240 2680 1288 2680 1425 C 2680 1483 2677 1530 2673 1530 C 2668 1530 2656 1523 2646 1515 C 2635 1507 2609 1500 2587 1500 C 2556 1500 2541 1507 2515 1533 L 2483 1565 L 2456 1546 C 2404 1507 2319 1531 2297 1590 L 2287 1618 L 2256 1599 C 2239 1589 2217 1580 2207 1580 C 2194 1580 2202 1567 2237 1533 C 2301 1471 2339 1390 2343 1311 C 2346 1237 2327 1225 2323 1298 C 2315 1420 2243 1527 2134 1577 C 2090 1597 2070 1601 2034 1595 C 1958 1584 1986 1606 2078 1630 C 2187 1658 2218 1674 2230 1706 C 2248 1753 2242 1790 2211 1821 C 2172 1859 2139 1858 1986 1816 z" stroke-linecap="round" />
</g>
</g>
</g>
</svg>