<?xml version="1.0" encoding="UTF-8" standalone="no" ?>
<!DOCTYPE svg PUBLIC "-//W3C//DTD SVG 1.1//EN" "http://www.w3.org/Graphics/SVG/1.1/DTD/svg11.dtd">
<svg xmlns="http://www.w3.org/2000/svg" xmlns:xlink="http://www.w3.org/1999/xlink" version="1.1" width="500" height="500" viewBox="0 0 500 500" xml:space="preserve">
<desc>Created with Fabric.js 5.3.0</desc>
<defs>
</defs>
<g transform="matrix(2.1666666667 0 0 2.1666666568 250 250)" id="nYs-zlQL60L1g_yrY8QBK"  >
<g style=""   >
		<g transform="matrix(0.1333333333 0 0 -0.1333333333 -4.9160260244 0.1142920914)" id="Y-tkqcKZdSwyiG-UHDsLS"  >
<path style="stroke: none; stroke-width: 1; stroke-dasharray: none; stroke-linecap: butt; stroke-dashoffset: 0; stroke-linejoin: miter; stroke-miterlimit: 4; fill: rgb(0,0,0); fill-rule: nonzero; opacity: 1;"  transform=" translate(-2213.1298048173, -1689.1428093144)" d="M 2122 2415 C 2105 2407 2087 2393 2081 2381 C 2074 2369 2070 2272 2070 2115 C 2070 1905 2072 1869 2084 1873 C 2110 1883 2168 1860 2194 1829 C 2214 1806 2220 1787 2220 1752 C 2220 1692 2192 1656 2126 1631 L 2076 1612 L 2119 1591 C 2220 1539 2298 1421 2303 1313 C 2305 1245 2288 1234 2283 1300 C 2278 1366 2262 1409 2224 1467 C 2165 1553 2071 1606 1994 1594 C 1917 1583 1945 1606 2038 1630 C 2151 1660 2169 1668 2186 1701 C 2221 1769 2179 1850 2109 1850 C 2050 1850 1837 1788 1813 1764 C 1774 1725 1776 1703 1830 1499 C 1900 1233 1892 1249 1963 1238 C 1980 1235 1982 1222 1983 1095 L 1985 955 L 2255 955 L 2525 955 L 2528 1098 C 2530 1233 2532 1240 2551 1240 C 2616 1240 2640 1292 2640 1430 C 2640 1485 2637 1530 2633 1530 C 2628 1530 2616 1523 2606 1515 C 2595 1507 2569 1500 2547 1500 C 2516 1500 2501 1507 2475 1533 L 2443 1565 L 2416 1546 C 2383 1521 2331 1520 2295 1544 C 2242 1579 2240 1597 2240 2003 L 2240 2377 L 2218 2397 C 2187 2425 2159 2430 2122 2415 z" stroke-linecap="round" />
</g>
		<g transform="matrix(0.1333333333 0 0 -0.1333333333 -48.4838578947 -54.7808588921)" id="nGPkuLzyq_gy0XD52EVVC"  >
<path style="stroke: none; stroke-width: 1; stroke-dasharray: none; stroke-linecap: butt; stroke-dashoffset: 0; stroke-linejoin: miter; stroke-miterlimit: 4; fill: rgb(0,0,0); fill-rule: nonzero; opacity: 1;"  transform=" translate(-1886.3710657895, -2100.8564416906)" d="M 1790 2367 C 1776 2360 1759 2342 1751 2326 C 1739 2299 1743 2278 1800 2061 C 1834 1931 1864 1824 1865 1822 C 1869 1818 2020 1857 2027 1864 C 2033 1869 1928 2273 1908 2323 C 1898 2350 1855 2380 1828 2380 C 1821 2380 1804 2374 1790 2367 z" stroke-linecap="round" />
</g>
		<g transform="matrix(0.1333333333 0 0 -0.1333333333 14 -9.2329861558)" id="HzEmNvlfboddYJMjkLiu-"  >
<path style="stroke: none; stroke-width: 1; stroke-dasharray: none; stroke-linecap: butt; stroke-dashoffset: 0; stroke-linejoin: miter; stroke-miterlimit: 4; fill: rgb(0,0,0); fill-rule: nonzero; opacity: 1;"  transform=" translate(-2355, -1759.2473961681)" d="M 2295 1945 C 2271 1921 2270 1917 2270 1762 C 2270 1616 2272 1600 2291 1576 C 2319 1540 2380 1539 2415 1575 C 2439 1599 2440 1602 2440 1760 C 2440 1918 2439 1921 2415 1945 C 2399 1962 2380 1970 2355 1970 C 2330 1970 2311 1962 2295 1945 z" stroke-linecap="round" />
</g>
		<g transform="matrix(0.1333333333 0 0 -0.1333333333 40.0124603102 -5.8945071849)" id="520EEyA0kKDnQJi92ffuP"  >
<path style="stroke: none; stroke-width: 1; stroke-dasharray: none; stroke-linecap: butt; stroke-dashoffset: 0; stroke-linejoin: miter; stroke-miterlimit: 4; fill: rgb(0,0,0); fill-rule: nonzero; opacity: 1;"  transform=" translate(-2550.0934523265, -1734.2088038865)" d="M 2508 1934 C 2467 1912 2457 1864 2461 1706 C 2465 1569 2465 1568 2493 1544 C 2534 1509 2581 1512 2614 1551 C 2639 1581 2640 1585 2640 1726 C 2640 1885 2632 1917 2585 1938 C 2552 1953 2541 1953 2508 1934 z" stroke-linecap="round" />
</g>
</g>
</g>
</svg>